<?xml version="1.0" standalone="no"?>
<!DOCTYPE svg PUBLIC "-//W3C//DTD SVG 20010904//EN"
 "http://www.w3.org/TR/2001/REC-SVG-20010904/DTD/svg10.dtd">
<svg version="1.0" xmlns="http://www.w3.org/2000/svg"
 width="20px" height="20px" viewBox="0 0 1280.000000 1220.000000"
 preserveAspectRatio="xMidYMid meet">
<metadata>
Created by potrace 1.15, written by Peter Selinger 2001-2017
</metadata>
<g transform="translate(0.000000,1220.000000) scale(0.100000,-0.100000)"
fill="#000000" stroke="none">
<path d="M6695 12194 c-121 -9 -287 -27 -370 -39 -49 -8 -110 -17 -135 -20
-89 -14 -298 -57 -440 -91 -139 -34 -391 -103 -398 -109 -2 -2 13 -8 33 -14
29 -8 52 -6 113 12 67 18 104 21 287 21 228 0 302 -9 513 -65 216 -57 399
-127 612 -233 798 -401 1304 -1013 1277 -1546 -7 -127 -27 -209 -77 -315 -60
-128 -65 -148 -65 -285 1 -144 22 -230 82 -339 l35 -64 -1375 -1375 -1375
-1375 -28 20 c-91 64 -224 100 -335 89 -79 -7 -180 -37 -231 -68 -20 -13 -176
-156 -345 -318 -3017 -2895 -4319 -4148 -4354 -4192 -23 -29 -58 -87 -78 -128
-33 -71 -35 -80 -35 -180 0 -95 3 -112 30 -175 43 -100 95 -172 231 -320 202
-218 874 -879 938 -922 311 -209 627 -216 844 -18 76 69 4337 4561 4372 4609
92 125 109 353 38 506 -17 36 -39 74 -49 85 -19 21 -12 28 1364 1404 l1383
1383 61 -48 c228 -184 451 -234 750 -170 199 43 295 34 447 -39 96 -46 197
-125 300 -236 67 -72 343 -411 350 -431 3 -7 -35 -53 -85 -102 -140 -138 -188
-254 -177 -427 26 -412 483 -691 840 -513 41 20 161 135 560 532 456 455 511
514 542 574 107 214 54 472 -134 658 -182 179 -446 225 -655 112 l-49 -27 -39
45 c-77 87 -224 290 -271 374 -27 47 -76 145 -109 218 -103 231 -205 430 -266
525 -137 208 -301 410 -517 633 -569 588 -1517 1548 -1589 1610 -503 432
-1038 667 -1720 756 -115 15 -583 27 -701 18z"/>
</g>
</svg>
