<svg xmlns="http://www.w3.org/2000/svg" width="26" height="26" viewBox="0 0 640 640" shape-rendering="geometricPrecision" text-rendering="geometricPrecision" image-rendering="optimizeQuality" fill-rule="evenodd" clip-rule="evenodd"><path d="M47.103 50.174H246.57V19.583C246.57 8.81 255.37 0 266.153 0h110.116c10.783 0 19.583 8.811 19.583 19.583v30.59h197.034c6.732 0 12.224 5.505 12.224 12.237v59.966H34.88V62.41c0-6.732 5.491-12.236 12.224-12.236zm33.036 104.02h483.963c10.086 0 19.252 8.328 18.342 18.355l-40.96 449.108c-.91 10.028-8.28 18.343-18.355 18.343H120.533c-10.075 0-17.457-8.291-18.355-18.343L61.784 172.55c-.898-10.063 8.256-18.354 18.355-18.354zm314.508 69.758h51.39v340.173h-51.39V223.952zm-203.14 0h51.39v340.173h-51.39V223.952zm101.564 0h51.402v340.173H293.07V223.952z"/></svg>